<?xml version="1.0" encoding="UTF-8"?>
<svg width="722" height="722" enable-background="new 0 0 1024 1024" version="1.1" viewBox="0 0 722 722" xml:space="preserve" xmlns="http://www.w3.org/2000/svg"><g transform="translate(-181.88 -161.38)">

<path d="m182.15 280.09c1.0417-23.221 16.632-49.418 45.579-58.985 4.0721-1.3458 8.3499-2.0694 13.233-2.7543 2.1844 0.43182 3.6677 0.62881 5.1511 0.62894 174.86 0.0147 349.73 0.0173 524.59-0.0206 1.744-3.8e-4 3.4877-0.54648 5.2316-0.8378 22.503 0.79252 46.99 18.846 54.952 41.659 2.8843 8.2639 4.8724 17.308 4.9364 26.013 0.42261 57.436 0.20911 114.88-0.13043 173.06-0.46374 2.8767-0.59412 5.0103-1.0716 7.1037-2.5601-1.412-4.7581-2.809-6.9893-4.1505-4.8778-2.9327-9.7723-5.8372-14.653-9.228 0.0104-27.407 0.0525-54.339-0.0716-81.27-8e-3 -1.7686-1.2877-3.5314-2.2288-5.29-0.41571-0.0368-0.57855-0.0805-1.0353-0.41098-1.778-0.39393-3.262-0.59479-4.746-0.59491-197.54-0.0146-395.09-0.0168-592.63 0.0234-1.7374 3.4e-4 -3.4746 0.58207-5.3771 1.0478-0.40556 0.34375-0.60823 0.56635-1.0935 1.111-0.47915 10.923-0.77238 21.557-0.77574 32.192-0.0303 95.634-0.019 191.27 0.0644 286.9 2e-3 1.8779 1.0259 3.7548 1.6804 6.0942 0.16076 9.2844 0.47107 18.114 0.21492 26.927-0.55521 19.103 10.182 39.001 32.211 45.502 16.298 3.7877 32.528 2.3031 49.172 1.2255 1.8472-0.0249 3.2717 0.021 4.9399 0.32824 2.0428 0.0869 3.8417-0.0877 6.1037-0.33264 4.5262-0.0237 8.5894 0.023 12.95 0.35254 13.491 0.38117 26.685 0.4903 39.879 0.54071 0.56815 2e-3 1.1384-0.53741 2.0583-0.8902 0.82209-0.0212 1.2936 0.0232 2.0219 0.33344 2.3799 0.0892 4.5029-0.0875 7.0126-0.33392 1.1679-0.0241 1.9492 0.0215 3.0284 0.34997 7.3936 0.0945 14.489-0.0936 21.994-0.35181 1.5092-0.0223 2.6099 0.0253 4.0094 0.35419 4.7184 0.39118 9.1416 0.66211 13.557 0.56671 4.6784-0.10107 9.3493-0.55035 14.488-0.9187 4.861-0.0245 9.2577 0.0222 13.898 0.33002 2.0424 0.0873 3.8408-0.0864 6.062-0.33045 1.8471-0.0234 3.2714 0.0235 4.9943 0.35199 6.3673 0.39161 12.437 0.62964 18.504 0.56421 3.695-0.0399 7.3849-0.54754 11.464-0.91479 1.1681-0.0231 1.9495 0.0235 2.9361 0.31665 1.3637 0.0821 2.5222-0.0823 4.1271-0.31738 2.8552-0.0224 5.2639 0.0258 7.9496 0.3446 3.0522 0.088 5.8273-0.0946 9.0356-0.34735 2.1841-0.0218 3.9351 0.0264 5.9852 0.35541 7.7266 0.0919 15.154-0.097 22.932-0.3523 0.82203-0.0226 1.2936 0.0211 2.0469 0.34107 3.3886 0.093 6.4953-0.0901 9.9888-0.34302 1.1681-0.0234 1.9495 0.0229 3.0239 0.34912 4.3916 0.094 8.4901-0.092 13.029-0.34851 2.52-0.0236 4.5992 0.0234 6.9544 0.34265 3.0524 0.0905 5.8289-0.0912 8.9922-0.34241 1.1684-0.0232 1.9501 0.0233 3.0303 0.35132 7.0603 0.0931 13.822-0.0954 21.006-0.35376 1.846-0.0221 3.2693 0.0256 4.8978 0.32013 1.3637 0.0823 2.5223-0.0821 4.1273-0.31732 2.8546-0.0232 5.2629 0.0241 7.9643 0.35083 4.3906 0.0934 8.4879-0.0926 12.936-0.34534 0.82221-0.0238 1.294 0.0191 1.9701 0.31006 1.3644 0.0831 2.5243-0.0817 4.1306-0.31701 2.8539-0.0234 5.2615 0.0236 7.9675 0.35241 10.108 0.37372 19.918 0.46546 30.024 0.71765 5.7383 7.7376 11.18 15.315 16.154 22.894-146.27 4e-3 -292.08 0.0115-437.88-0.0299-3.2903-9.7e-4 -6.576-0.65387-9.8729-0.80499-1.2253-0.0562-2.4767 0.45563-3.7162 0.70843-28.932-5.8139-51.167-31.823-52.735-62.815 0.45206-2.2047 0.64998-3.6884 0.65008-5.1722 0.0103-145.51 9e-3 -291.03-0.0329-436.54-4.9e-4 -1.7509-0.52382-3.5016-0.8031-5.2524m25.055 60.788c2.0192 0.3732 4.0383 1.0727 6.0576 1.0732 192.45 0.0494 384.9 0.0457 577.35 0.0453 5.4986-3e-5 11.002 0.1243 16.492-0.0905 1.3219-0.0517 2.5997-1.2283 3.8771-2.8273-0.0142-17.664-0.0129-35.327-0.0463-52.991-0.0453-23.964-19.147-43.1-43.162-43.109-86.485-0.0331-172.97-0.0214-259.46-0.0205-86.485 9.5e-4 -172.97-0.017-259.46 0.0326-22.114 0.0127-41.18 18.463-41.743 40.509 0 0 0.0359 0.411-0.0577 1.133 0.0143 0.48434 0.0287 0.9687-0.0126 2.3705-0.0245 17.701-0.049 35.401 0.1505 53.874z" fill="#72aacf"/>
<path d="m812.97 453.06c4.8878 2.916 9.7824 5.8205 14.66 8.7532 2.2313 1.3415 4.4292 2.7385 7.1076 4.3657 0.6695 0.52969 0.93823 0.7048 1.2716 0.78067 33.356 25.417 56.073 57.788 64.359 99.375 6.9474 34.87 1.1314 67.811-14.697 99.538-12.852 25.76-29.614 48.838-46.252 72.101-27.279 38.14-54.286 76.477-81.362 114.76-2.9803 4.2139-6.3168 7.6877-11.774 8.3502-6.7434 0.81854-10.874-2.9289-14.418-7.9462-14.007-19.832-28.06-39.632-42.101-59.44-0.38391-0.54168-0.82177-1.0452-1.5487-2.029-0.61243-0.8645-0.91065-1.2664-1.2089-1.6682-5.4423-7.5772-10.884-15.154-16.653-23.143-0.34009-0.58001-0.35376-0.74847-0.46106-1.2421-2.3693-3.6036-4.7068-6.8411-6.9109-10.167-19.74-29.788-42.654-57.427-59.305-89.322-14.945-28.627-20.606-58.763-16.377-90.614 4.0847-30.766 16.362-58.085 36.915-81.451 30.466-34.635 68.938-52.873 114.93-55.045 24.998-1.1804 48.874 4.0815 72.076 13.965 0.471 0.0244 0.65985 0.0224 1.074 0.0358 0.22534 0.0155 0.67633 0.0407 0.67633 0.0407m-201.05 137.48c0.0993 7.1623-0.58728 14.44 0.44226 21.466 3.3557 22.9 11.973 43.892 25.168 62.878 29.98 43.139 60.118 86.168 90.235 129.21 5.5853 7.9828 11.368 15.827 17.35 24.138 0.54083-0.78723 0.80805-1.1838 1.083-1.5748 17.592-25.02 35.384-49.903 52.727-75.095 20.446-29.701 41.313-59.161 60.48-89.678 16.227-25.837 21.977-54.946 17.359-85.221-5.1411-33.707-21.317-61.818-48.037-83.089-34.419-27.401-73.869-34.585-116.19-25.061-28.92 6.5083-53.04 21.753-71.743 45.081-17.808 22.212-27.826 47.378-28.875 76.945z" fill="#78bfab"/>
<path d="m686.54 790c0.76733 0.39941 1.0656 0.80127 1.391 1.4642-97.584 0.27747-195.2 0.29737-292.81 0.3089-47.473 6e-3 -94.947 0.0521-142.42-0.0826-5.6133-0.0159-11.224-1.0637-17.233-1.725 0.84127-0.34478 2.0926-0.85656 3.3179-0.80041 3.2969 0.15112 6.5826 0.80402 9.8729 0.80499 145.8 0.0414 291.61 0.034 437.88 0.0299z" fill="#5398c5"/>
<path d="m775.47 218.07c-1.2833 0.34818-3.027 0.89428-4.771 0.89466-174.86 0.0379-349.73 0.0353-524.59 0.0206-1.4834-1.3e-4 -2.9668-0.19712-4.7468-0.58516 21.345-0.43238 42.987-0.61974 64.629-0.72197 29.302-0.1384 58.605-0.31114 87.907-0.29434 95.41 0.0547 190.82 0.16992 286.23 0.30328 31.628 0.0442 63.255 0.21384 95.343 0.38296z" fill="#5398c5"/>
<path d="m182.1 280.55c0.32595 1.291 0.84928 3.0417 0.84977 4.7926 0.0415 145.51 0.0432 291.03 0.0329 436.54-1e-4 1.4838-0.19802 2.9675-0.58836 4.7456-0.36069-43.529-0.49028-87.353-0.50175-131.18-0.0264-100.82 3e-3 -201.63 0.0187-302.45 6.3e-4 -3.9988 0.0927-7.9976 0.18878-12.456z" fill="#4591c1"/>
<path d="m836.02 466.52c-0.34388 0.36221-0.61261 0.1871-0.93506-0.3024 0.0122-2.3488 0.14258-4.4824 0.54419-6.891 0.31457 2.0684 0.35797 4.4119 0.39087 7.1934z" fill="#64a0c9"/>
<path d="m810.94 452.95c-22.92-9.857-46.795-15.119-71.794-13.938-45.992 2.1717-84.464 20.41-114.93 55.045-20.554 23.366-32.831 50.685-36.915 81.451-4.2288 31.851 1.4317 61.988 16.377 90.614 16.651 31.894 39.565 59.533 59.305 89.322 2.204 3.326 4.5416 6.5634 6.4443 10.194-10.037 0.39044-19.701 0.42847-29.364 0.46655-2.4076-0.047-4.8151-0.094-8.0565-0.11322-1.8717 0.0557-2.9097 0.0837-3.9476 0.11163-0.47168-0.0429-0.94342-0.0858-2.2219-0.10528-4.7954 0.052-8.784 0.0806-12.773 0.10925-2.4082-0.0474-4.8165-0.0947-8.0583-0.11383-1.8708 0.0565-2.9081 0.0847-3.9453 0.11292-1.4233-0.0477-2.8467-0.0955-5.1549-0.11622-7.5375 0.0563-14.19 0.0856-20.843 0.11499-0.78162-0.0464-1.5633-0.0929-3.1738-0.1123-3.4946 0.0557-6.1604 0.0842-8.8261 0.11273-2.0792-0.0469-4.1583-0.0939-7.1348-0.1131-4.8868 0.0557-8.8764 0.0836-12.866 0.11133-0.78144-0.0463-1.5628-0.0927-3.1776-0.11151-3.8302 0.0547-6.827 0.0819-9.8238 0.10907-0.47156-0.0437-0.94311-0.0875-2.2275-0.10724-8.1315 0.054-15.45 0.084-22.769 0.11395-1.751-0.0482-3.502-0.0965-6.1282-0.11706-3.5403 0.0581-6.2054 0.0886-8.8705 0.11914-2.4087-0.0482-4.8174-0.0964-8.0598-0.11621-1.8708 0.0566-2.908 0.0848-3.9452 0.11304-0.78137-0.0466-1.5628-0.0932-3.193-0.11322-10.501 0.0551-20.153 0.0836-29.804 0.11218-1.4243-0.0469-2.8486-0.0939-5.1141-0.1131-2.5233 0.0558-4.2054 0.0839-5.8875 0.11206-4.3967-0.0467-8.7934-0.0935-14.117-0.11169-9.9114 0.0568-18.896 0.0851-27.881 0.1134-1.1007-0.0476-2.2014-0.0952-4.1729-0.11536-7.8569 0.0554-14.843 0.0834-21.829 0.11145-0.78132-0.0456-1.5627-0.0912-3.159-0.10962-2.8237 0.0551-4.8323 0.0828-6.841 0.11048-0.47147-0.0443-0.94293-0.0888-2.2274-0.11035-14.466 0.0517-28.119 0.0806-41.773 0.10949-4.0632-0.0467-8.1265-0.0934-13.071-0.11181-2.564 0.0567-4.2465 0.085-5.9289 0.11334-1.4245-0.0458-2.8489-0.0917-5.1582-0.11041-2.8698 0.0196-4.8567 0.067-6.8392-5e-3 -14.011-0.50629-28.02-1.037-42.03-1.56-21.869-6.1182-32.606-26.017-32.051-45.119 0.25615-8.8132-0.0542-17.643-0.14943-27.386-0.21422-13.733-0.523-26.545-0.53551-39.357-0.0551-56.434-6e-3 -112.87-0.0319-169.3-0.0176-38.785-0.0957-77.571-0.14682-116.36 0.16494-0.25693 0.36761-0.47953 1.2367-0.80231 142.79-0.125 284.94-0.10443 427.1-0.11124 58.495-3e-3 116.99-0.0644 175.48-0.0993 0.16285 0.0437 0.32569 0.0874 0.85303 0.58099 0.3913 3.7646 0.43573 7.0793 0.44214 10.394 0.0482 25.026 0.0889 50.051 0.0101 75.322-0.18219 0.41595-0.24262 0.58765-0.30304 0.75934m-253.34 118.04c0.1745-0.31232 0.349-0.62457 0.44165-0.94531 0 0 0.0181 0.0803 0.56213-0.0505 0.17261-0.31256 0.34522-0.62512 0.43427-0.94494 0 0 0.028 0.079 0.5791-0.0369 0.16809-0.31756 0.33618-0.63513 0.41889-0.96155 0 0 0.0343 0.0787 0.58978-0.0295 0.16772-0.31927 0.33545-0.63861 0.42108-0.98456 0 0 0.0186 0.0843 0.56714-0.0301 0.17029-0.31646 0.34057-0.63293 0.43396-0.97821 0 0 5e-3 0.082 0.55353-0.0491 0.20129-0.31134 0.40264-0.62274 1.0402-1.1596 0.14996-0.4486 0.29999-0.89721 1.0479-2.007-0.2088-3.3024-0.41766-6.6048-0.64416-9.8297 0 0 0.0779-0.0156 3e-3 -0.62109-0.34039-0.48773-0.68072-0.97546-1.2729-2.0761-3.9871-4.0087-7.9538-8.0379-11.965-12.022-15.213-15.112-30.439-30.209-46.042-45.806-0.57587-0.2027-1.1517-0.40536-1.7471-0.52154 0 0 0.0821-0.0338-0.3428-0.64618-0.98252-0.19806-1.9651-0.39615-3.5137-1.0529-5.9838-0.39123-10.813 2.201-13.108 7.0359-2.4234 5.1053-1.5657 9.9814 2.9044 14.552 12.452 12.732 24.943 25.426 37.523 38.031 2.6696 2.6748 5.7846 4.9048 9.7717 8.2413-2.8678 2.1033-4.5087 3.0221-5.7983 4.2964-13.858 13.694-27.705 27.4-41.457 41.2-5.332 5.3503-5.6327 13.079-0.99496 17.914 5.1139 5.332 13.002 5.8669 18.279 0.65955 16.705-16.483 33.215-33.163 50.297-50.101 0.17395-0.3443 0.3479-0.68866 0.445-1.0143 0 0 0.033 0.0719 0.57404-0.0621m-144.57 74.02s0.0154 0.0735 0.53971-0.44257c0.64392-2.1769 1.2879-4.3539 2.346-7.0856 16.502-52.227 33.009-104.45 49.484-156.69 0.49405-1.5663 0.83343-3.2257 0.94144-4.8617 0.43402-6.5759-3.7151-12.155-10.005-13.631-6.1827-1.4508-11.898 1.5015-14.348 7.8506-1.7285 4.4797-2.9282 9.1633-4.3687 13.754-15.948 50.83-31.901 101.66-47.842 152.49-1.9357 6.1726-0.66071 10.45 4.6626 14.793 0 0 0.4801-0.0134 0.53415-0.0688 0 0-0.0639-0.0437 0.20553 0.64776 3.906 2.8794 7.887 2.556 11.837 0.26709 0 0 5.4e-4 0.0769 0.62173 0.0115 0.49823-0.34003 0.99646-0.68006 2.0276-1.1926 0.4566-0.57251 0.91321-1.1451 1.924-2.1159 0.50488-1.2419 1.0098-2.4837 1.4396-3.7275m-48.25-40.686c-9.169-9.1245-18.338-18.249-27.803-27.888-0.3103-0.23987-0.62057-0.4798-1.212-1.3026-5.7193-5.5252-11.439-11.05-18.24-17.621 2.5292-1.905 4.5715-3.1064 6.2011-4.7237 13.588-13.486 27.131-27.019 40.621-40.604 5.3608-5.3988 5.4149-13.155 0.32776-18.294-5.28-5.3338-11.863-5.2143-17.596 0.40244-18.312 17.939-36.626 35.876-54.886 53.868-5.9778 5.8903-5.9178 12.97-0.054 18.88 14.769 14.885 29.52 29.789 44.322 44.643 3.7563 3.7695 7.478 7.6155 11.57 10.997 4.5955 3.7977 11.83 3.4204 16.111-0.31646 4.2335-3.6954 5.1789-9.7976 2.0985-15.989-0.40909-0.4762-0.81815-0.95233-1.4605-2.0523z" fill="#fff"/>
<path d="m207.11 286.09c-0.0143-0.48434-0.0287-0.9687 0.14256-1.8816 0.18557-0.42856 0.26926-0.83249 0.26926-0.83249l-0.34299-0.28095c0.50858-21.637 19.575-40.088 41.689-40.1 86.485-0.0496 172.97-0.0316 259.46-0.0326 86.485-9.6e-4 172.97-0.0127 259.46 0.0205 24.015 9e-3 43.116 19.145 43.162 43.109 0.0334 17.664 0.0322 35.327-0.18006 53.493-0.22632 0.50231-0.70349 0.4736-0.99304 0.1614-2.0978-0.45618-3.9059-0.72543-5.7142-0.72598-67.976-0.0215-135.95-0.0181-203.93-0.0182-128.79-6e-5 -257.58-0.0232-386.37 0.0948-4.5449 4e-3 -5.9714-1.1296-5.8682-5.797 0.30916-13.988 0.14381-27.988 0.0743-41.983-9e-3 -1.7435-0.55522-3.4844-0.85255-5.2266m106.32 15.792c5.7776 8.6065 16.645 10.508 24.821 4.3434 7.8144-5.892 9.1351-16.689 2.9759-24.327-5.1106-6.3379-15.705-7.9976-22.682-3.5535-7.5696 4.8211-9.7455 13.887-5.1144 23.537m83.09 2.0676c5.8426-8.22 5.9081-15.011 0.21527-22.325-3.9937-5.1309-13.334-7.4951-19.537-4.6405-6.3431 2.9191-10.164 7.6634-10.344 15.05-0.18183 7.4555 2.9064 12.801 9.5148 16.06 6.7798 3.3429 13.294 2.0684 20.151-4.1445m-125.78-27.991c-7.2431 0.85054-12.755 5.2866-14.673 11.56-2.1842 7.1464-0.15712 13.124 5.106 18.003 5.2652 4.8812 12.411 5.6238 18.968 2.4204 7.174-3.5049 10.715-11.508 8.7462-19.767-1.6936-7.1044-8.6911-12.057-18.147-12.216z" fill="#b3daef"/>
<path d="m810.05 340.06s0.47717 0.0287 0.71387-4e-3c-1.0613 0.6268-2.3392 1.8034-3.6611 1.8551-5.4902 0.21484-10.994 0.0905-16.492 0.0905-192.45 3.4e-4 -384.9 4e-3 -577.35-0.0453-2.0193-5.2e-4 -4.0384-0.69998-5.699-1.4448 101.13-0.37946 201.9-0.383 302.68-0.39639 99.939-0.0133 199.88-0.0366 299.82-0.0555z" fill="#64a0c9"/>
<path d="m809.76 339.74c-99.649 0.33106-199.59 0.35434-299.53 0.36765-100.77 0.0134-201.54 0.0169-302.79 0.0105-0.44616-17.715-0.42167-35.416-0.36937-53.575 0.32515 1.2834 0.87171 3.0243 0.88037 4.7679 0.0695 13.995 0.2349 27.995-0.0743 41.983-0.10316 4.6674 1.3233 5.8012 5.8682 5.797 128.79-0.11795 257.58-0.0949 386.37-0.0948 67.976 3e-5 135.95-3e-3 203.93 0.0182 1.8083 5.5e-4 3.6164 0.2698 5.7142 0.72598z" fill="#cae9f7"/>
<path d="m809.64 365.61c-58.201 0.32162-116.7 0.38327-175.19 0.38607-142.16 7e-3 -284.31-0.0138-426.93-0.0442 1.2738-0.33123 3.0111-0.91296 4.7484-0.9133 197.54-0.0403 395.09-0.038 592.63-0.0234 1.484 1.2e-4 2.968 0.20098 4.746 0.59491z" fill="#4591c1"/></g><g transform="translate(-181.88 -161.38)" fill="#5398c5">
<path d="m205.79 367.2c0.37143 38.498 0.44954 77.283 0.46716 116.07 0.0257 56.434-0.0232 112.87 0.0319 169.3 0.0125 12.812 0.32129 25.625 0.42821 38.895-0.61269-1.419-1.637-3.2959-1.6386-5.1738-0.0834-95.633-0.0947-191.27-0.0644-286.9 3e-3 -10.635 0.29659-21.27 0.77574-32.192z"/>
<path d="m811.36 451.95c-0.0431-25.026-0.0838-50.051-0.13202-75.077-6e-3 -3.3148-0.0508-6.6295-0.18927-10.401 0.57654 1.3087 1.8561 3.0715 1.8643 4.8401 0.12414 26.931 0.082 53.863 0.0716 81.27-7e-3 0.47479-0.45807 0.44956-0.7478 0.22467-0.40167-0.50897-0.594-0.71951-0.86682-0.8565z"/>
<path d="m239.19 764.81c13.85 0.14026 27.86 0.67102 41.871 1.1773 1.9826 0.0716 3.9695 0.0242 6.4165 0.0755-15.759 1.0503-31.989 2.5348-48.287-1.2528z"/>
<path d="m312.36 766.39c13.355-0.31171 27.009-0.34064 41.124-0.32678-0.10681 0.33008-0.67706 0.86969-1.2452 0.86749-13.194-0.0504-26.387-0.15954-39.879-0.54071z"/>
<path d="m640.36 766.39c9.3654-0.31994 19.029-0.35797 29.16-0.42328 0.48029 0.14124 0.49396 0.3097 0.53803 0.72931-9.7795 0.15943-19.589 0.0677-29.698-0.30603z"/>
<path d="m445.36 766.39c9.3532-0.31012 19.005-0.33862 29.119-0.32397-3.23 0.34064-6.92 0.84827-10.615 0.88818-6.0668 0.0654-12.137-0.1726-18.504-0.56421z"/>
<path d="m392.36 766.39c8.6862-0.30969 17.671-0.33801 27.118-0.32361-4.212 0.33991-8.8829 0.78919-13.561 0.89026-4.4153 0.0954-8.8385-0.17553-13.557-0.56665z"/>
<path d="m505.36 766.39c7.0196-0.31073 14.338-0.34076 22.119-0.32837-6.9652 0.23132-14.393 0.42022-22.119 0.32837z"/>
<path d="m366.36 766.39c6.6883-0.31085 13.674-0.33887 21.123-0.32434-6.6335 0.23071-13.729 0.41888-21.123 0.32434z"/>
<path d="m575.36 766.39c6.3541-0.31097 13.007-0.34033 20.122-0.32678-6.2996 0.23138-13.061 0.41992-20.122 0.32678z"/>
<path d="m543.35 766.39c3.6966-0.30774 7.6862-0.33557 12.132-0.32074-3.6421 0.2287-7.7406 0.41467-12.132 0.32074z"/>
<path d="m613.35 766.39c3.6954-0.30798 7.684-0.33661 12.129-0.3219-3.641 0.22925-7.7384 0.41528-12.129 0.3219z"/>
<path d="m530.34 766.38c2.715-0.30341 5.7118-0.33063 9.1553-0.31556-2.66 0.22541-5.7668 0.40857-9.1553 0.31556z"/>
<path d="m490.34 766.38c2.3882-0.30115 5.0532-0.33166 8.1604-0.3197-2.3331 0.2251-5.1082 0.40771-8.1604 0.3197z"/>
<path d="m563.34 766.38c2.3897-0.30078 5.0555-0.32935 8.1633-0.31537-2.3344 0.22418-5.1108 0.40589-8.1633 0.31537z"/>
<path d="m356.32 766.37c1.7518-0.29358 3.7605-0.32129 6.1975-0.30658-1.6946 0.21911-3.8176 0.39581-6.1975 0.30658z"/>
<path d="m293.3 766.37c1.4387-0.28973 3.1211-0.31805 5.2222-0.30432-1.3804 0.21662-3.1794 0.39118-5.2222 0.30432z"/>
<path d="m434.3 766.37c1.4382-0.28919 3.1203-0.31732 5.2208-0.30274-1.38 0.21637-3.1785 0.39008-5.2208 0.30274z"/>
<path d="m601.26 766.35c0.83203-0.27502 1.8693-0.30322 3.2937-0.28906-0.77142 0.20685-1.93 0.37134-3.2937 0.28906z"/>
<path d="m628.26 766.35c0.83344-0.276 1.8714-0.30395 3.2968-0.28918-0.77246 0.20745-1.9324 0.37231-3.2968 0.28918z"/>
<path d="m478.26 766.35c0.83197-0.27478 1.8691-0.30304 3.2935-0.289-0.7713 0.20672-1.9298 0.37115-3.2935 0.289z"/>
</g><g transform="translate(-181.88 -161.38)"><path d="m207.15 283.3c0.0271-0.2045 0.37007 0.0765 0.37007 0.0765s-0.0837 0.40393-0.22247 0.47148c-0.13878 0.0676-0.17469-0.34345-0.1476-0.54793z" fill="#cae9f7"/>
<path d="m611.92 590.04c1.0452-29.074 11.062-54.24 28.871-76.452 18.703-23.328 42.823-38.573 71.743-45.081 42.32-9.524 81.77-2.3394 116.19 25.061 26.719 21.271 42.895 49.382 48.037 83.089 4.6177 30.275-1.132 59.384-17.359 85.221-19.167 30.517-40.034 59.977-60.48 89.678-17.342 25.192-35.134 50.075-52.727 75.095-0.27496 0.39105-0.54218 0.7876-1.083 1.5748-5.9816-8.3111-11.765-16.156-17.35-24.138-30.116-43.044-60.255-86.073-90.235-129.21-13.194-18.986-21.812-39.978-25.168-62.878-1.0295-7.0259-0.34295-14.303-0.43798-21.958m118.68 72.954c8.3926 0.27753 17.014 1.9466 25.141 0.60822 55.387-9.1216 81.396-71.845 49.361-116.43-14.471-20.142-34.289-30.898-58.707-31.845-17.372-0.6737-33.052 5.3667-47.012 16.3-24.687 19.334-34.958 55.295-23.356 84.41 9.8826 24.799 27.905 40.326 54.572 46.961z" fill="#b5e6c5"/>
<path d="m811.24 452.19c0.39471-0.1073 0.58704 0.10324 0.76337 0.59674-0.12445 0.21149-0.3133 0.2135-0.7843 0.18906-0.22175-0.19815-0.16132-0.36985 0.0209-0.7858z" fill="#86b8d8"/>
<path d="m394.02 650.95c-4.9062-4.1041-6.1812-8.3819-4.2455-14.554 15.941-50.832 31.894-101.66 47.842-152.49 1.4405-4.5911 2.6402-9.2747 4.3687-13.754 2.4497-6.3491 8.1651-9.3014 14.348-7.8506 6.29 1.476 10.439 7.0548 10.005 13.631-0.10801 1.636-0.44739 3.2954-0.94144 4.8617-16.475 52.236-32.982 104.46-50.067 157.1-1.151 2.6714-1.7193 4.9302-2.2876 7.189 0 0-0.0154-0.0735-0.31119 0.0634-0.76315 1.421-1.2306 2.705-1.698 3.9889-0.45663 0.57251-0.91324 1.1451-1.9608 1.8179-1.0799 0.45282-1.5689 0.80524-2.0579 1.1577 0 0-5.4e-4 -0.0769-0.41815-0.0842-4.1748-0.32202-7.932-0.6366-11.689-0.95124 0 0 0.0639 0.0437-2.4e-4 -0.12542-0.33844-0.1128-0.61276-0.0565-0.88709-1.8e-4z" fill="#70a9ce"/>
<path d="m366.53 606.95c2.7907 5.6177 1.8453 11.72-2.3882 15.415-4.281 3.7368-11.516 4.1142-16.111 0.31646-4.0921-3.3818-7.8138-7.2277-11.57-10.997-14.801-14.854-29.552-29.757-44.322-44.643-5.8638-5.9098-5.9239-12.989 0.054-18.88 18.26-17.992 36.574-35.929 54.886-53.868 5.7336-5.6168 12.316-5.7362 17.596-0.40244 5.0872 5.139 5.033 12.895-0.32776 18.294-13.49 13.585-27.033 27.117-40.621 40.604-1.6296 1.6172-3.6719 2.8187-6.2011 4.7237 6.8016 6.5707 12.521 12.096 18.486 18.204 0.58444 0.79981 0.92309 1.0168 1.2618 1.2338 9.169 9.1245 18.338 18.249 27.667 28.032 0.63669 1.095 1.1135 1.5312 1.5903 1.9673z" fill="#70a9ce"/>
<path d="m505.15 492.96c15.222 15.103 30.448 30.2 45.661 45.312 4.011 3.9846 7.9778 8.0138 12.105 12.648 0.49621 1.1024 0.85186 1.5792 1.2075 2.0561 0 0-0.0779 0.0156-0.0915 0.4461 0.0109 3.6405 0.0354 6.8505 0.0599 10.06-0.15002 0.44861-0.30005 0.89722-0.93292 1.5458-0.69068 0.49688-0.89838 0.79376-1.1061 1.0906-6e-5 0-5e-3 -0.082-0.21784 0.0236-0.39849 0.39942-0.58398 0.69324-0.76941 0.98706 0 0-0.0186-0.0843-0.23144 0.0176-0.39648 0.39819-0.58008 0.69452-0.76373 0.99091 0 0-0.0343-0.0787-0.24305 0.0176-0.39294 0.39123-0.57708 0.68628-0.76122 0.98126 0 0-0.028-0.079-0.23737 0.0176-0.39587 0.3908-0.5824 0.68493-0.76898 0.979 0 0-0.0181-0.0803-0.22876 0.0175-0.39777 0.39233-0.5849 0.68695-0.77198 0.9815 0 0-0.033-0.0719-0.26232 0.0593-0.39032 0.49323-0.55133 0.85523-0.71235 1.2172-16.585 16.604-33.096 33.284-49.8 49.767-5.2773 5.2073-13.165 4.6724-18.279-0.65955-4.6377-4.8355-4.3371-12.564 0.99496-17.914 13.752-13.8 27.599-27.506 41.457-41.2 1.2896-1.2743 2.9305-2.193 5.7983-4.2964-3.9871-3.3365-7.1021-5.5666-9.7717-8.2413-12.58-12.605-25.071-25.299-37.523-38.031-4.4701-4.5707-5.3278-9.4468-2.9044-14.552 2.2951-4.8349 7.1247-7.4271 13.629-6.4967 1.4863 0.73483 2.4523 0.93048 3.4184 1.1261 0 0-0.0821 0.0338 0.0752 0.28019 0.76178 0.42062 1.3662 0.59481 1.9706 0.76898z" fill="#72aacf"/>
<path d="m395.04 651.43c3.6225-0.0311 7.3797 0.28345 11.593 0.61114-3.5709 2.2905-7.5518 2.614-11.593-0.61114z" fill="#5398c5"/>
<path d="m564.39 563.15c-0.32342-2.8794-0.3479-6.0894-0.34998-9.7686 0.23127 2.8331 0.44013 6.1356 0.34998 9.7686z" fill="#64a0c9"/>
<path d="m413.3 644.83c0.30622-2.0008 0.87451-4.2595 1.8184-6.6536-0.26834 2.0416-0.91229 4.2186-1.8184 6.6536z" fill="#5398c5"/>
<path d="m411.31 648.94c0.19034-1.0848 0.65778-2.3688 1.4585-3.7888-0.17163 1.1059-0.67652 2.3477-1.4585 3.7888z" fill="#5398c5"/>
<path d="m502.89 491.6c-0.75363 0.11057-1.7197-0.0851-2.9228-0.59057 0.74536-0.11179 1.7279 0.0863 2.9228 0.59057z" fill="#64a0c9"/>
<path d="m407.33 652.08c0.17838-0.31976 0.66736-0.67218 1.4808-1.0387-0.17377 0.32593-0.672 0.66596-1.4808 1.0387z" fill="#5398c5"/>
<path d="m366.38 606.67c-0.33197-0.14917-0.80877-0.58533-1.3288-1.3685 0.36584 0.12921 0.7749 0.60534 1.3288 1.3685z" fill="#5398c5"/></g><g transform="translate(-181.88 -161.38)" fill="#64a0c9">
<path d="m504.96 492.71c-0.41403 0.0728-1.0185-0.10141-1.7705-0.56531 0.42835-0.087 1.0042 0.11569 1.7705 0.56531z"/>
<path d="m564.09 552.67c-0.31806-0.17413-0.67371-0.65094-1.044-1.4468 0.32569 0.16864 0.66602 0.65637 1.044 1.4468z"/>
<path d="m562.33 566.05c-0.0667-0.23132 0.14099-0.5282 0.61353-0.91235 0.0635 0.22412-0.13788 0.53552-0.61353 0.91235z"/>
<path d="m558.33 570.06c-0.0855-0.2287 0.10108-0.52283 0.53876-0.91003 0.0785 0.21954-0.0941 0.5321-0.53876 0.91003z"/>
<path d="m561.34 567.07c-0.0888-0.23663 0.0967-0.53045 0.53363-0.91546 0.0812 0.22534-0.089 0.54181-0.53363 0.91546z"/>
<path d="m560.35 568.08c-0.0941-0.24225 0.0895-0.53858 0.5271-0.92346 0.0861 0.23077-0.0816 0.55011-0.5271 0.92346z"/>
<path d="m559.34 569.07c-0.0914-0.237 0.0928-0.53205 0.52838-0.91883 0.0834 0.22571-0.0847 0.54328-0.52838 0.91883z"/>
</g><g transform="translate(-181.88 -161.38)"><path d="m394.23 651.07c0.0658-0.17535 0.34009-0.23169 0.65149-0.0912 0.0371 0.19684-0.44296 0.21026-0.65149 0.0912z" fill="#5398c5"/>
<path d="m337.12 576.7c-0.19089 0.04-0.52954-0.177-0.97342-0.6853 0.20508-0.0515 0.51535 0.18847 0.97342 0.6853z" fill="#5398c5"/>
<path d="m556.33 572.24c-0.0873-0.19494 0.0737-0.55694 0.50244-1.0595 0.0937 0.2038-0.0802 0.54816-0.50244 1.0595z" fill="#64a0c9"/>
<path d="m557.33 571.06c-0.0834-0.2276 0.1037-0.52222 0.54236-0.91034 0.0772 0.21875-0.0973 0.531-0.54236 0.91034z" fill="#64a0c9"/></g><g transform="translate(-181.88 -161.38)" fill="#72aacf">
<path d="m313.24 301.54c-4.4447-9.3128-2.2688-18.378 5.3008-23.199 6.9777-4.4441 17.572-2.7844 22.682 3.5535 6.1593 7.6384 4.8385 18.435-2.9759 24.327-8.1761 6.1648-19.043 4.2632-25.007-4.6815z"/>
<path d="m396.26 304.21c-6.5971 5.9503-13.111 7.2248-19.891 3.8819-6.6084-3.2584-9.6966-8.6042-9.5148-16.06 0.1802-7.3865 4.001-12.131 10.344-15.05 6.203-2.8546 15.543-0.49042 19.537 4.6405 5.6928 7.3138 5.6273 14.105-0.47528 22.587z"/>
<path d="m271.16 275.95c9.0233 0.16682 16.021 5.1196 17.714 12.224 1.9688 8.2591-1.5723 16.262-8.7462 19.767-6.5568 3.2034-13.703 2.4608-18.968-2.4204-5.2631-4.8793-7.2903-10.856-5.106-18.003 1.9175-6.2736 7.4299-10.71 15.106-11.568z"/>
</g><path d="m548.3 501.58c-26.242-6.6038-44.264-22.131-54.147-46.929-11.603-29.114-1.331-65.076 23.356-84.41 13.96-10.933 29.64-16.974 47.012-16.3 24.418 0.94697 44.236 11.704 58.707 31.845 32.035 44.588 6.0253 107.31-49.361 116.43-8.1265 1.3384-16.748-0.33069-25.566-0.63965m23.425-120.22c-18.188-2.7877-33.534 2.3754-45.506 16.546-12.79 15.14-14.75 37.949-4.8664 54.57 11.073 18.621 30.895 27.875 51.05 23.833 22.307-4.4733 38.568-23.94 38.708-46.341 0.15118-24.13-15.308-43.546-39.386-48.609z" fill="#78bfab"/>
<path d="m572.14 381.46c23.66 4.9662 39.119 24.382 38.968 48.512-0.14032 22.4-16.401 41.867-38.708 46.341-20.155 4.0418-39.978-5.2123-51.05-23.833-9.8838-16.622-7.924-39.431 4.8664-54.57 11.972-14.171 27.318-19.334 45.925-16.449z" fill="#fff"/>
</svg>
